# xmcd
#
# Track frame offsets: 
#        150
#        16467
#        36168
#        55570
#        75898
#        106344
#        134124
#        156962
#        170770
#        189336
#        202897
#
# Disc length: 3040 seconds
#
# Revision: 0
# Processed by: cddbd v1.5.1PL0 Copyright (c) Steve Scherf et al.
# Submitted via: ExactAudioCopy v0.95a3
#
DISCID=880bde0b
DTITLE=Julia Boman - Vagabond
DYEAR=2004
DGENRE=
TTITLE0=Under The Snow
TTITLE1=Share The Moon
TTITLE2=Vagabond
TTITLE3=No Man's Land
TTITLE4=Le Sahara
TTITLE5=Stay With Me (unplugged)
TTITLE6=Amber Of Your Eyes
TTITLE7=Lost In You
TTITLE8=Hey Baby
TTITLE9=Stay With Me
TTITLE10=Orlando
EXTD=
EXTT0=
EXTT1=
EXTT2=
EXTT3=
EXTT4=
EXTT5=
EXTT6=
EXTT7=
EXTT8=
EXTT9=
EXTT10=
PLAYORDER=
